<svg width="40" height="35" viewBox="0 0 40 35" fill="none" xmlns="http://www.w3.org/2000/svg">
<path d="M24.02 5.56999V6.06999H24.52H24.76C26.7612 6.06999 28.0078 6.52882 28.719 7.31526C29.5053 8.18513 29.5498 9.36632 29.4726 10.3566C29.4674 10.3967 29.4644 10.4312 29.4623 10.4548L29.4619 10.4604C29.4593 10.4894 29.4582 10.4993 29.4568 10.5078L29.4543 10.5224L29.4528 10.5371L29.403 11.0048L29.4028 11.0071L29.3874 11.1459C29.0214 11.4098 28.6275 11.6736 28.2539 11.8847L28.2539 11.8846L28.2427 11.8912C28.2241 11.9024 28.2076 11.9129 28.1944 11.9214L28.1617 11.9422C28.1452 11.9527 28.1357 11.9581 28.1264 11.9628L28.1118 11.9701L28.0977 11.9783C26.3706 12.9874 24.459 13.6763 22.4801 13.9964L22.0897 14.0596L22.0613 14.454C22.0299 14.8883 21.9226 15.2614 21.6547 15.5319C21.3917 15.7975 20.8872 16.05 19.87 16.05C18.8545 16.05 18.3546 15.7959 18.0933 15.5312C17.8254 15.2599 17.7185 14.8886 17.6777 14.4623L17.6409 14.0783L17.2601 14.0164C15.4038 13.7152 13.5785 13.1031 11.9208 12.1918L11.9209 12.1918L11.9153 12.1888C11.762 12.1071 11.6303 12.0365 11.5104 11.9594L11.4968 11.9507L11.4828 11.9429C11.2618 11.8201 10.878 11.5733 10.635 11.4143L10.5577 10.6026L10.5566 10.5909L10.555 10.5793L10.5465 10.5201C10.4484 9.52033 10.4506 8.24825 11.2812 7.32492C11.9927 6.53848 13.2295 6.07999 15.24 6.07999H15.48H15.98V5.57999V5.52999C15.98 4.66036 15.9942 3.87967 16.3706 3.29408C16.7106 2.76505 17.4454 2.26999 19.24 2.26999H20.76C22.5555 2.26999 23.2899 2.76309 23.6296 3.29066C24.0056 3.87477 24.02 4.65496 24.02 5.52999V5.56999ZM18.63 12.08H18.13V12.58V13.84L18.13 13.8634C18.1299 14.0987 18.1299 14.3274 18.1527 14.5185C18.1766 14.7187 18.2328 14.958 18.4081 15.1575C18.5873 15.3615 18.8255 15.4507 19.0531 15.4951C19.2766 15.5387 19.5484 15.55 19.86 15.55C20.1691 15.55 20.4394 15.5407 20.6608 15.5003C20.8855 15.4593 21.1271 15.3748 21.3095 15.1702C21.488 14.9699 21.5438 14.7275 21.5674 14.526C21.59 14.3325 21.59 14.0987 21.59 13.854L21.59 13.83V12.58V12.08H21.09H18.63ZM23.09 6.07999H23.59V5.57999V5.52999V5.50663C23.59 5.10301 23.59 4.72039 23.5499 4.39226C23.5085 4.05362 23.4184 3.71104 23.1921 3.42262C22.9599 3.1266 22.6324 2.94786 22.2345 2.84292C21.8451 2.74024 21.358 2.69999 20.76 2.69999H19.24C18.6423 2.69999 18.1555 2.73957 17.7665 2.84123C17.3691 2.9451 17.0411 3.12254 16.8083 3.41823C16.5815 3.70635 16.4915 4.04911 16.4501 4.38813C16.4099 4.71669 16.41 5.10051 16.41 5.5065L16.41 5.52999V5.56999V5.57999V6.07999H16.91H23.09Z" fill="url(#paint0_linear_15_58)" stroke="#FFE7AA"/>
<g filter="url(#filter0_di_15_58)">
<path d="M28.8735 13.7342C29.2271 13.5659 29.6344 13.8462 29.599 14.2362L29.24 18.19C29.03 20.19 28.21 22.23 23.81 22.23H16.19C11.79 22.23 10.97 20.19 10.76 18.2L10.4193 14.4522C10.3843 14.0667 10.7822 13.7867 11.1349 13.9463C12.2743 14.4618 14.3774 15.3764 15.6766 15.7167C15.8409 15.7597 15.9738 15.8773 16.0457 16.0312C16.6527 17.3293 17.9691 18.02 19.87 18.02C21.7521 18.02 23.0852 17.3027 23.6942 16.0014C23.7662 15.8474 23.8992 15.7298 24.0636 15.6866C25.4432 15.3236 27.6818 14.3012 28.8735 13.7342Z" fill="url(#paint1_linear_15_58)"/>
</g>
<defs>
<filter id="filter0_di_15_58" x="0.417175" y="5.68433" width="39.184" height="28.5457" filterUnits="userSpaceOnUse" color-interpolation-filters="sRGB">
<feFlood flood-opacity="0" result="BackgroundImageFix"/>
<feColorMatrix in="SourceAlpha" type="matrix" values="0 0 0 0 0 0 0 0 0 0 0 0 0 0 0 0 0 0 127 0" result="hardAlpha"/>
<feOffset dy="2"/>
<feGaussianBlur stdDeviation="5"/>
<feComposite in2="hardAlpha" operator="out"/>
<feColorMatrix type="matrix" values="0 0 0 0 0 0 0 0 0 0 0 0 0 0 0 0 0 0 0.14 0"/>
<feBlend mode="normal" in2="BackgroundImageFix" result="effect1_dropShadow_15_58"/>
<feBlend mode="normal" in="SourceGraphic" in2="effect1_dropShadow_15_58" result="shape"/>
<feColorMatrix in="SourceAlpha" type="matrix" values="0 0 0 0 0 0 0 0 0 0 0 0 0 0 0 0 0 0 127 0" result="hardAlpha"/>
<feOffset dy="3"/>
<feGaussianBlur stdDeviation="2"/>
<feComposite in2="hardAlpha" operator="arithmetic" k2="-1" k3="1"/>
<feColorMatrix type="matrix" values="0 0 0 0 1 0 0 0 0 1 0 0 0 0 1 0 0 0 0.45 0"/>
<feBlend mode="normal" in2="shape" result="effect2_innerShadow_15_58"/>
</filter>
<linearGradient id="paint0_linear_15_58" x1="20.0012" y1="1.76999" x2="24" y2="20.5" gradientUnits="userSpaceOnUse">
<stop stop-color="#FFDF6C"/>
<stop offset="1" stop-color="#FF9900"/>
</linearGradient>
<linearGradient id="paint1_linear_15_58" x1="20.01" y1="13.343" x2="20" y2="22.5" gradientUnits="userSpaceOnUse">
<stop stop-color="#C126D2"/>
<stop offset="1" stop-color="#DA267A"/>
</linearGradient>
</defs>
</svg>
