<svg width="1512" height="982" viewBox="0 0 1512 982" fill="none" xmlns="http://www.w3.org/2000/svg">
<g clip-path="url(#clip0_7_6)">
<rect width="1512" height="982" fill="white"/>
<g opacity="0.2" filter="url(#filter0_f_7_6)">
<circle cx="1364.5" cy="606.5" r="339.5" fill="url(#paint0_linear_7_6)"/>
</g>
<g opacity="0.2" filter="url(#filter1_f_7_6)">
<circle cx="490.5" cy="-137.5" r="339.5" fill="url(#paint1_linear_7_6)"/>
</g>
<g opacity="0.15" filter="url(#filter2_f_7_6)">
<circle cx="24.5" cy="734.5" r="339.5" fill="url(#paint2_linear_7_6)"/>
</g>
<g opacity="0.05">
<path fill-rule="evenodd" clip-rule="evenodd" d="M990.423 473.351C967.276 1130.28 1176.8 1670.72 1458.4 1680.47C1740.01 1690.22 1987.05 1165.57 2010.2 508.643C2033.35 -148.285 1823.83 -688.731 1542.22 -698.476C1260.62 -708.222 1013.57 -183.577 990.423 473.351Z" stroke="url(#paint3_linear_7_6)" stroke-width="3.80145"/>
<path fill-rule="evenodd" clip-rule="evenodd" d="M992.045 446.69C934.549 1101.51 1115.5 1652.18 1396.21 1676.65C1676.91 1701.12 1951.08 1190.12 2008.58 535.304C2066.07 -119.512 1885.13 -670.182 1604.42 -694.653C1323.71 -719.123 1049.54 -208.126 992.045 446.69Z" stroke="url(#paint4_linear_7_6)" stroke-width="3.80145"/>
<path fill-rule="evenodd" clip-rule="evenodd" d="M995.06 420.15C903.373 1071.06 1055.25 1630.45 1334.3 1669.57C1613.34 1708.7 1913.88 1212.75 2005.56 561.844C2097.25 -89.0657 1945.37 -648.452 1666.33 -687.579C1387.28 -726.707 1086.75 -230.76 995.06 420.15Z" stroke="url(#paint5_linear_7_6)" stroke-width="3.80145"/>
<path fill-rule="evenodd" clip-rule="evenodd" d="M999.46 393.804C873.833 1039.02 996.23 1605.59 1272.84 1659.27C1549.45 1712.95 1875.54 1233.41 2001.16 588.19C2126.79 -57.0295 2004.39 -623.598 1727.78 -677.276C1451.17 -730.954 1125.09 -251.415 999.46 393.804Z" stroke="url(#paint6_linear_7_6)" stroke-width="3.80145"/>
<path fill-rule="evenodd" clip-rule="evenodd" d="M1005.23 367.725C846.01 1005.48 938.588 1577.68 1212.01 1645.76C1485.44 1713.84 1836.17 1252.03 1995.39 614.269C2154.61 -23.491 2062.04 -595.688 1788.61 -663.77C1515.19 -731.851 1164.46 -270.035 1005.23 367.725Z" stroke="url(#paint7_linear_7_6)" stroke-width="3.80145"/>
<path fill-rule="evenodd" clip-rule="evenodd" d="M1012.36 341.984C819.98 970.536 882.484 1546.79 1151.97 1629.09C1421.46 1711.39 1795.88 1268.56 1988.26 640.011C2180.64 11.4577 2118.14 -564.801 1848.65 -647.099C1579.17 -729.397 1204.75 -286.569 1012.36 341.984Z" stroke="url(#paint8_linear_7_6)" stroke-width="3.80145"/>
<path fill-rule="evenodd" clip-rule="evenodd" d="M1020.83 316.651C795.816 934.273 828.075 1513.01 1092.89 1609.3C1357.7 1705.59 1754.78 1282.97 1979.79 665.344C2204.81 47.7208 2172.55 -531.019 1907.74 -627.308C1642.93 -723.597 1245.85 -300.972 1020.83 316.651Z" stroke="url(#paint9_linear_7_6)" stroke-width="3.80145"/>
<path fill-rule="evenodd" clip-rule="evenodd" d="M1030.61 291.795C773.582 896.795 775.508 1476.43 1034.92 1586.45C1294.32 1696.46 1712.98 1295.2 1970.01 690.199C2227.04 85.1988 2225.12 -494.436 1965.71 -604.452C1706.3 -714.468 1287.64 -313.205 1030.61 291.795Z" stroke="url(#paint10_linear_7_6)" stroke-width="3.80145"/>
<path fill-rule="evenodd" clip-rule="evenodd" d="M1041.68 267.486C753.34 858.205 724.928 1437.15 978.222 1560.59C1231.52 1684.03 1670.6 1305.23 1958.94 714.508C2247.28 123.789 2275.7 -455.153 2022.4 -578.594C1769.11 -702.036 1330.02 -323.233 1041.68 267.486Z" stroke="url(#paint11_linear_7_6)" stroke-width="3.80145"/>
<path fill-rule="evenodd" clip-rule="evenodd" d="M1054.01 243.79C735.145 818.609 676.473 1395.27 922.959 1531.8C1169.45 1668.33 1627.75 1313.02 1946.62 738.204C2265.48 163.386 2324.15 -413.275 2077.66 -549.804C1831.18 -686.333 1372.87 -331.029 1054.01 243.79Z" stroke="url(#paint12_linear_7_6)" stroke-width="3.80145"/>
<path fill-rule="evenodd" clip-rule="evenodd" d="M1067.56 220.771C719.048 778.114 630.276 1350.91 869.279 1500.16C1108.28 1649.4 1584.56 1318.57 1933.07 761.223C2281.58 203.88 2370.35 -368.92 2131.34 -518.162C1892.34 -667.403 1416.07 -336.572 1067.56 220.771Z" stroke="url(#paint13_linear_7_6)" stroke-width="3.80145"/>
<path fill-rule="evenodd" clip-rule="evenodd" d="M1082.29 198.492C705.093 736.832 586.464 1304.2 817.329 1465.75C1048.19 1627.29 1541.13 1321.84 1918.33 783.501C2295.53 245.162 2414.16 -322.207 2183.29 -483.753C1952.43 -645.299 1459.49 -339.847 1082.29 198.492Z" stroke="url(#paint14_linear_7_6)" stroke-width="3.80145"/>
<path fill-rule="evenodd" clip-rule="evenodd" d="M1100.51 181.361C695.651 699.222 547.491 1259.61 769.586 1433.01C991.68 1606.42 1499.93 1327.18 1904.78 809.324C2309.64 291.463 2457.8 -268.92 2235.71 -442.327C2013.61 -615.734 1505.37 -336.499 1100.51 181.361Z" stroke="url(#paint15_linear_7_6)" stroke-width="3.80145"/>
<path fill-rule="evenodd" clip-rule="evenodd" d="M1109.38 163.173C686.692 666.588 519.066 1221.46 734.973 1402.51C950.88 1583.56 1468.56 1322.24 1891.25 818.821C2313.93 315.405 2481.56 -239.466 2265.65 -420.518C2049.74 -601.571 1532.06 -340.243 1109.38 163.173Z" stroke="url(#paint16_linear_7_6)" stroke-width="3.80145"/>
<path fill-rule="evenodd" clip-rule="evenodd" d="M1127.07 143.162C678.618 623.766 482.181 1169.1 688.317 1361.21C894.452 1553.31 1425.1 1319.44 1873.55 838.832C2322.01 358.227 2518.44 -187.11 2312.31 -379.214C2106.17 -571.318 1575.52 -337.442 1127.07 143.162Z" stroke="url(#paint17_linear_7_6)" stroke-width="3.80145"/>
<path fill-rule="evenodd" clip-rule="evenodd" d="M1145.79 124.105C672.795 580.58 448.087 1114.89 643.886 1317.52C839.685 1520.15 1381.85 1314.36 1854.84 857.889C2327.83 401.414 2552.54 -132.896 2356.74 -335.525C2160.94 -538.154 1618.78 -332.371 1145.79 124.105Z" stroke="url(#paint18_linear_7_6)" stroke-width="3.80145"/>
<path fill-rule="evenodd" clip-rule="evenodd" d="M1165.47 106.053C669.241 537.148 416.877 1058.97 601.803 1271.56C786.729 1484.16 1338.92 1307.04 1835.15 875.94C2331.38 444.845 2583.75 -76.972 2398.82 -289.571C2213.89 -502.169 1661.71 -325.042 1165.47 106.053Z" stroke="url(#paint19_linear_7_6)" stroke-width="3.80145"/>
<path fill-rule="evenodd" clip-rule="evenodd" d="M1186.08 89.0565C667.965 493.59 388.637 1001.48 562.183 1223.47C735.729 1445.46 1296.43 1297.47 1814.55 892.937C2332.66 488.403 2611.99 -19.4909 2438.44 -241.476C2264.89 -463.462 1704.19 -315.477 1186.08 89.0565Z" stroke="url(#paint20_linear_7_6)" stroke-width="3.80145"/>
<path fill-rule="evenodd" clip-rule="evenodd" d="M1207.54 73.1646C668.969 450.028 363.443 942.607 525.133 1173.37C686.824 1404.14 1254.5 1285.7 1793.08 908.835C2331.65 531.971 2637.18 39.3921 2475.49 -191.372C2313.8 -422.136 1746.12 -303.699 1207.54 73.1646Z" stroke="url(#paint21_linear_7_6)" stroke-width="3.80145"/>
<path fill-rule="evenodd" clip-rule="evenodd" d="M1229.81 58.415C672.253 406.575 341.366 882.489 490.758 1121.4C640.149 1360.31 1213.25 1271.74 1770.81 923.584C2328.37 575.424 2659.26 99.5102 2509.87 -139.4C2360.47 -378.31 1787.38 -289.745 1229.81 58.415Z" stroke="url(#paint22_linear_7_6)" stroke-width="3.80145"/>
<path fill-rule="evenodd" clip-rule="evenodd" d="M1252.82 44.8509C677.806 363.353 322.465 821.298 459.148 1067.7C595.831 1314.1 1172.78 1255.65 1747.8 937.148C2322.82 618.646 2678.16 160.701 2541.47 -85.7C2404.79 -332.101 1827.84 -273.651 1252.82 44.8509Z" stroke="url(#paint23_linear_7_6)" stroke-width="3.80145"/>
<path fill-rule="evenodd" clip-rule="evenodd" d="M1276.51 32.5098C685.614 320.482 306.793 759.202 430.393 1012.42C553.993 1265.64 1133.21 1237.46 1724.11 949.489C2315.01 661.518 2693.83 222.797 2570.23 -30.4194C2446.63 -283.636 1867.41 -255.462 1276.51 32.5098Z" stroke="url(#paint24_linear_7_6)" stroke-width="3.80145"/>
<path fill-rule="evenodd" clip-rule="evenodd" d="M1300.82 21.427C695.654 278.079 294.391 696.372 404.57 955.71C514.749 1215.05 1094.65 1217.23 1699.81 960.575C2304.97 703.923 2706.23 285.63 2596.05 26.2918C2485.87 -233.047 1905.98 -235.225 1300.82 21.427Z" stroke="url(#paint25_linear_7_6)" stroke-width="3.80145"/>
<path fill-rule="evenodd" clip-rule="evenodd" d="M1325.66 11.6296C707.9 236.258 285.296 632.977 381.751 897.727C478.206 1162.48 1057.19 1195 1674.96 970.372C2292.72 745.744 2715.33 349.025 2618.87 84.2752C2522.42 -180.474 1943.43 -212.999 1325.66 11.6296Z" stroke="url(#paint26_linear_7_6)" stroke-width="3.80145"/>
<path fill-rule="evenodd" clip-rule="evenodd" d="M1350.99 3.14609C722.318 195.135 279.531 569.193 361.997 838.628C444.464 1108.06 1020.96 1170.84 1649.63 978.855C2278.3 786.866 2721.09 412.808 2638.62 143.373C2556.16 -126.061 1979.67 -188.843 1350.99 3.14609Z" stroke="url(#paint27_linear_7_6)" stroke-width="3.80145"/>
<path fill-rule="evenodd" clip-rule="evenodd" d="M1376.73 -3.99995C738.869 154.824 277.112 505.196 345.364 778.577C413.617 1051.96 986.034 1144.83 1623.89 986.002C2261.75 827.178 2723.51 476.806 2655.26 203.425C2587.01 -69.9567 2014.59 -162.824 1376.73 -3.99995Z" stroke="url(#paint28_linear_7_6)" stroke-width="3.80145"/>
<path fill-rule="evenodd" clip-rule="evenodd" d="M1402.8 -9.78913C757.507 115.434 278.045 441.159 331.896 717.738C385.748 994.317 952.52 1117.01 1597.82 991.791C2243.12 866.568 2722.58 540.843 2668.73 264.264C2614.87 -12.3145 2048.1 -135.012 1402.8 -9.78913Z" stroke="url(#paint29_linear_7_6)" stroke-width="3.80145"/>
<path fill-rule="evenodd" clip-rule="evenodd" d="M1429.15 -14.2062C778.181 77.0733 282.329 377.259 321.631 656.277C360.934 935.295 920.508 1087.49 1571.48 996.208C2222.44 904.928 2718.29 604.743 2678.99 325.725C2639.69 46.7068 2080.11 -105.486 1429.15 -14.2062Z" stroke="url(#paint30_linear_7_6)" stroke-width="3.80145"/>
<path fill-rule="evenodd" clip-rule="evenodd" d="M1455.69 -17.2381C800.833 39.8472 289.951 313.67 314.597 594.363C339.243 875.056 890.085 1056.33 1544.94 999.24C2199.79 942.155 2710.67 668.331 2686.03 387.639C2661.38 106.946 2110.54 -74.3235 1455.69 -17.2381Z" stroke="url(#paint31_linear_7_6)" stroke-width="3.80145"/>
<path fill-rule="evenodd" clip-rule="evenodd" d="M1482.35 -18.8772C825.404 3.85758 300.89 250.568 310.812 532.166C320.734 813.764 861.334 1023.61 1518.28 1000.88C2175.22 978.144 2699.73 731.434 2689.81 449.836C2679.89 168.238 2139.29 -41.612 1482.35 -18.8772Z" stroke="url(#paint32_linear_7_6)" stroke-width="3.80145"/>
<path fill-rule="evenodd" clip-rule="evenodd" d="M1509.06 -19.1186C851.824 -30.7967 315.117 188.125 310.288 469.856C305.458 751.587 834.335 989.442 1491.57 1001.12C2148.8 1012.8 2685.51 793.877 2690.33 512.146C2695.16 230.415 2166.29 -7.44051 1509.06 -19.1186Z" stroke="url(#paint33_linear_7_6)" stroke-width="3.80145"/>
<path fill-rule="evenodd" clip-rule="evenodd" d="M1535.74 -17.9617C880.022 -64.0207 332.593 126.512 313.026 407.604C293.458 688.696 809.162 953.905 1464.88 999.964C2120.6 1046.02 2668.03 855.49 2687.6 574.398C2707.16 293.306 2191.46 28.0972 1535.74 -17.9617Z" stroke="url(#paint34_linear_7_6)" stroke-width="3.80145"/>
<path fill-rule="evenodd" clip-rule="evenodd" d="M1562.33 -15.4101C909.919 -95.7236 353.269 65.8973 319.017 345.58C284.766 625.263 785.882 917.098 1438.29 997.412C2090.7 1077.73 2647.35 916.104 2681.61 636.421C2715.86 356.738 2214.74 64.9034 1562.33 -15.4101Z" stroke="url(#paint35_linear_7_6)" stroke-width="3.80145"/>
<path fill-rule="evenodd" clip-rule="evenodd" d="M1588.75 -11.4703C941.435 -125.818 377.089 6.44843 328.247 283.956C279.404 561.463 764.561 879.124 1411.87 993.472C2059.19 1107.82 2623.53 975.554 2672.38 698.046C2721.22 420.539 2236.06 102.878 1588.75 -11.4703Z" stroke="url(#paint36_linear_7_6)" stroke-width="3.80145"/>
<path fill-rule="evenodd" clip-rule="evenodd" d="M1562.33 -15.4101C909.919 -95.7236 353.269 65.8973 319.017 345.58C284.766 625.263 785.882 917.098 1438.29 997.412C2090.7 1077.73 2647.35 916.104 2681.61 636.421C2715.86 356.738 2214.74 64.9034 1562.33 -15.4101Z" stroke="url(#paint37_linear_7_6)" stroke-width="3.80145"/>
<path fill-rule="evenodd" clip-rule="evenodd" d="M1614.92 -6.15321C974.483 -154.222 403.988 -51.6724 340.689 222.898C277.39 497.469 745.257 840.086 1385.7 988.155C2026.14 1136.22 2596.63 1033.67 2659.93 759.104C2723.23 484.533 2255.37 141.916 1614.92 -6.15321Z" stroke="url(#paint38_linear_7_6)" stroke-width="3.80145"/>
<path fill-rule="evenodd" clip-rule="evenodd" d="M1640.79 0.526451C1008.97 -180.858 433.892 -108.306 356.31 162.576C278.727 433.457 728.022 800.091 1359.84 981.475C1991.65 1162.86 2566.73 1090.31 2644.31 819.426C2721.89 548.545 2272.6 181.911 1640.79 0.526451Z" stroke="url(#paint39_linear_7_6)" stroke-width="3.80145"/>
<path fill-rule="evenodd" clip-rule="evenodd" d="M1666.26 8.5508C1044.81 -205.651 466.719 -163.296 375.066 103.154C283.414 369.604 712.904 759.249 1334.36 973.451C1955.82 1187.65 2533.9 1145.3 2625.56 878.849C2717.21 612.399 2287.72 222.753 1666.26 8.5508Z" stroke="url(#paint40_linear_7_6)" stroke-width="3.80145"/>
<path fill-rule="evenodd" clip-rule="evenodd" d="M1691.29 17.897C1081.89 -228.536 502.378 -216.494 396.906 44.794C291.434 306.082 699.943 717.672 1309.34 964.105C1918.73 1210.54 2498.24 1198.5 2603.72 937.208C2709.19 675.92 2300.68 264.33 1691.29 17.897Z" stroke="url(#paint41_linear_7_6)" stroke-width="3.80145"/>
<path fill-rule="evenodd" clip-rule="evenodd" d="M1715.78 28.54C1120.12 -249.449 540.774 -267.752 421.771 -12.3422C302.769 243.068 689.178 675.473 1284.84 953.462C1880.5 1231.45 2459.85 1249.75 2578.85 994.344C2697.85 738.934 2311.45 306.529 1715.78 28.54Z" stroke="url(#paint42_linear_7_6)" stroke-width="3.80145"/>
<path fill-rule="evenodd" clip-rule="evenodd" d="M1739.69 40.4509C1159.4 -268.331 581.798 -316.931 449.592 -68.0988C317.386 180.733 680.634 632.769 1260.93 941.551C1841.23 1250.33 2418.82 1298.93 2551.03 1050.1C2683.24 801.269 2319.99 349.233 1739.69 40.4509Z" stroke="url(#paint43_linear_7_6)" stroke-width="3.80145"/>
<path fill-rule="evenodd" clip-rule="evenodd" d="M1762.94 53.5967C1199.6 -285.133 625.341 -363.895 480.293 -122.323C335.245 119.249 674.338 589.676 1237.68 928.405C1801.02 1267.13 2375.28 1345.9 2520.33 1104.32C2665.38 862.753 2326.28 392.326 1762.94 53.5967Z" stroke="url(#paint44_linear_7_6)" stroke-width="3.80145"/>
<path fill-rule="evenodd" clip-rule="evenodd" d="M1785.48 67.9411C1240.63 -299.807 671.282 -408.516 513.79 -174.866C356.298 58.7834 670.306 546.312 1215.15 914.061C1759.99 1281.81 2329.34 1390.52 2486.83 1156.87C2644.32 923.218 2330.32 435.689 1785.48 67.9411Z" stroke="url(#paint45_linear_7_6)" stroke-width="3.80145"/>
<path fill-rule="evenodd" clip-rule="evenodd" d="M1807.23 83.4453C1282.38 -312.314 719.495 -450.671 549.991 -225.584C380.486 -0.497218 668.549 502.798 1193.4 898.557C1718.24 1294.32 2281.13 1432.67 2450.63 1207.59C2620.14 982.499 2332.07 479.204 1807.23 83.4453Z" stroke="url(#paint46_linear_7_6)" stroke-width="3.80145"/>
<path fill-rule="evenodd" clip-rule="evenodd" d="M1828.14 100.066C1324.72 -322.619 769.849 -490.245 588.796 -274.338C407.744 -58.4309 669.071 459.25 1172.49 881.935C1675.9 1304.62 2230.77 1472.25 2411.83 1256.34C2592.88 1040.43 2331.55 522.751 1828.14 100.066Z" stroke="url(#paint47_linear_7_6)" stroke-width="3.80145"/>
<path fill-rule="evenodd" clip-rule="evenodd" d="M1848.15 117.759C1367.54 -330.693 822.204 -527.13 630.1 -320.994C437.996 -114.858 671.872 415.79 1152.48 864.243C1633.08 1312.7 2178.42 1509.13 2370.52 1303C2562.63 1096.86 2328.75 566.212 1848.15 117.759Z" stroke="url(#paint48_linear_7_6)" stroke-width="3.80145"/>
<path fill-rule="evenodd" clip-rule="evenodd" d="M1867.2 136.475C1410.73 -336.516 876.418 -561.224 673.789 -365.425C471.16 -169.625 676.944 372.536 1133.42 845.527C1589.89 1318.52 2124.2 1543.23 2326.83 1347.43C2529.46 1151.63 2323.68 609.466 1867.2 136.475Z" stroke="url(#paint49_linear_7_6)" stroke-width="3.80145"/>
<path fill-rule="evenodd" clip-rule="evenodd" d="M1885.25 156.163C1454.16 -340.07 932.342 -592.433 719.744 -407.507C507.145 -222.581 684.272 329.607 1115.37 825.839C1546.46 1322.07 2068.28 1574.44 2280.88 1389.51C2493.48 1204.58 2316.35 652.395 1885.25 156.163Z" stroke="url(#paint50_linear_7_6)" stroke-width="3.80145"/>
<path fill-rule="evenodd" clip-rule="evenodd" d="M1902.25 176.768C1497.72 -341.346 989.823 -620.674 767.838 -447.128C545.853 -273.581 693.837 287.12 1098.37 805.234C1502.9 1323.35 2010.8 1602.68 2232.78 1429.13C2454.77 1255.58 2306.79 694.882 1902.25 176.768Z" stroke="url(#paint51_linear_7_6)" stroke-width="3.80145"/>
<path fill-rule="evenodd" clip-rule="evenodd" d="M1918.15 198.235C1541.28 -340.341 1048.7 -645.867 817.939 -484.177C587.175 -322.487 705.612 245.192 1082.48 783.767C1459.34 1322.34 1951.92 1627.87 2182.68 1466.18C2413.45 1304.49 2295.01 736.81 1918.15 198.235Z" stroke="url(#paint52_linear_7_6)" stroke-width="3.80145"/>
<path fill-rule="evenodd" clip-rule="evenodd" d="M1932.9 220.503C1584.74 -337.058 1108.82 -667.945 869.912 -518.553C631.002 -369.161 719.567 203.937 1067.73 761.498C1415.89 1319.06 1891.8 1649.95 2130.71 1500.55C2369.62 1351.16 2281.06 778.065 1932.9 220.503Z" stroke="url(#paint53_linear_7_6)" stroke-width="3.80145"/>
<path fill-rule="evenodd" clip-rule="evenodd" d="M1946.46 243.514C1627.96 -331.505 1170.01 -686.845 923.612 -550.162C677.211 -413.479 735.66 163.469 1054.16 738.488C1372.66 1313.51 1830.61 1668.85 2077.01 1532.16C2323.41 1395.48 2264.96 818.533 1946.46 243.514Z" stroke="url(#paint54_linear_7_6)" stroke-width="3.80145"/>
<path fill-rule="evenodd" clip-rule="evenodd" d="M1958.8 267.203C1670.83 -323.697 1232.11 -702.518 978.892 -578.917C725.675 -455.317 753.85 123.9 1041.82 714.799C1329.79 1305.7 1768.51 1684.52 2021.73 1560.92C2274.95 1437.32 2246.77 858.102 1958.8 267.203Z" stroke="url(#paint55_linear_7_6)" stroke-width="3.80145"/>
<path fill-rule="evenodd" clip-rule="evenodd" d="M1969.89 291.505C1713.23 -313.656 1294.94 -714.919 1035.6 -604.74C776.263 -494.562 774.085 85.3358 1030.74 690.497C1287.39 1295.66 1705.68 1696.92 1965.02 1586.74C2224.36 1476.56 2226.54 896.666 1969.89 291.505Z" stroke="url(#paint56_linear_7_6)" stroke-width="3.80145"/>
<path fill-rule="evenodd" clip-rule="evenodd" d="M1979.68 316.354C1755.05 -301.41 1358.33 -724.014 1093.59 -627.56C828.836 -531.105 796.311 47.884 1020.94 665.648C1245.57 1283.41 1642.29 1706.02 1907.04 1609.56C2171.79 1513.11 2204.31 934.118 1979.68 316.354Z" stroke="url(#paint57_linear_7_6)" stroke-width="3.80145"/>
<path fill-rule="evenodd" clip-rule="evenodd" d="M1988.17 341.682C1796.18 -286.991 1422.12 -729.779 1152.68 -647.313C883.249 -564.846 820.467 11.6471 1012.46 640.32C1204.45 1268.99 1578.5 1711.78 1847.94 1629.31C2117.37 1546.85 2180.16 970.355 1988.17 341.682Z" stroke="url(#paint58_linear_7_6)" stroke-width="3.80145"/>
<path fill-rule="evenodd" clip-rule="evenodd" d="M1995.31 367.419C1836.49 -270.441 1486.12 -732.199 1212.74 -663.946C939.354 -595.693 846.486 -23.2762 1005.31 614.583C1164.13 1252.44 1514.51 1714.2 1787.89 1645.95C2061.27 1577.7 2154.14 1005.28 1995.31 367.419Z" stroke="url(#paint59_linear_7_6)" stroke-width="3.80145"/>
<path fill-rule="evenodd" clip-rule="evenodd" d="M2001.1 393.494C1875.88 -251.803 1550.15 -731.265 1273.57 -677.414C996.996 -623.562 874.298 -56.79 999.521 588.508C1124.74 1233.81 1450.47 1713.27 1727.05 1659.42C2003.63 1605.56 2126.32 1038.79 2001.1 393.494Z" stroke="url(#paint60_linear_7_6)" stroke-width="3.80145"/>
<path fill-rule="evenodd" clip-rule="evenodd" d="M2005.52 419.837C1914.24 -231.13 1614.05 -726.982 1335.04 -687.679C1056.02 -648.376 903.825 -88.8024 995.104 562.165C1086.38 1213.13 1386.57 1708.98 1665.59 1669.68C1944.61 1630.38 2096.8 1070.8 2005.52 419.837Z" stroke="url(#paint61_linear_7_6)" stroke-width="3.80145"/>
<path fill-rule="evenodd" clip-rule="evenodd" d="M2008.55 446.375C1951.46 -208.477 1677.64 -719.36 1396.95 -694.714C1116.26 -670.068 934.987 -119.226 992.072 535.626C1049.16 1190.48 1322.98 1701.36 1603.67 1676.72C1884.37 1652.07 2065.64 1101.23 2008.55 446.375Z" stroke="url(#paint62_linear_7_6)" stroke-width="3.80145"/>
<path fill-rule="evenodd" clip-rule="evenodd" d="M2010.19 473.036C1987.45 -183.907 1740.74 -708.42 1459.15 -698.498C1177.55 -688.577 967.698 -147.976 990.433 508.966C1013.17 1165.91 1259.88 1690.42 1541.48 1680.5C1823.07 1670.58 2032.92 1129.98 2010.19 473.036Z" stroke="url(#paint63_linear_7_6)" stroke-width="3.80145"/>
<path fill-rule="evenodd" clip-rule="evenodd" d="M1535.74 -17.9619C880.021 -64.0208 332.592 126.512 313.025 407.604C293.458 688.696 809.161 953.905 1464.88 999.964C2120.6 1046.02 2668.03 855.49 2687.6 574.398C2707.16 293.306 2191.46 28.097 1535.74 -17.9619Z" stroke="url(#paint64_linear_7_6)" stroke-width="3.80145"/>
</g>
</g>
<defs>
<filter id="filter0_f_7_6" x="719" y="-39" width="1291" height="1291" filterUnits="userSpaceOnUse" color-interpolation-filters="sRGB">
<feFlood flood-opacity="0" result="BackgroundImageFix"/>
<feBlend mode="normal" in="SourceGraphic" in2="BackgroundImageFix" result="shape"/>
<feGaussianBlur stdDeviation="153" result="effect1_foregroundBlur_7_6"/>
</filter>
<filter id="filter1_f_7_6" x="-155" y="-783" width="1291" height="1291" filterUnits="userSpaceOnUse" color-interpolation-filters="sRGB">
<feFlood flood-opacity="0" result="BackgroundImageFix"/>
<feBlend mode="normal" in="SourceGraphic" in2="BackgroundImageFix" result="shape"/>
<feGaussianBlur stdDeviation="153" result="effect1_foregroundBlur_7_6"/>
</filter>
<filter id="filter2_f_7_6" x="-621" y="89" width="1291" height="1291" filterUnits="userSpaceOnUse" color-interpolation-filters="sRGB">
<feFlood flood-opacity="0" result="BackgroundImageFix"/>
<feBlend mode="normal" in="SourceGraphic" in2="BackgroundImageFix" result="shape"/>
<feGaussianBlur stdDeviation="153" result="effect1_foregroundBlur_7_6"/>
</filter>
<linearGradient id="paint0_linear_7_6" x1="1364.5" y1="267" x2="1604.36" y2="1097.4" gradientUnits="userSpaceOnUse">
<stop stop-color="#FFDF6C"/>
<stop offset="1" stop-color="#FF9900"/>
</linearGradient>
<linearGradient id="paint1_linear_7_6" x1="490.5" y1="-477" x2="730.362" y2="353.401" gradientUnits="userSpaceOnUse">
<stop stop-color="#FFDF6C"/>
<stop offset="1" stop-color="#FF9900"/>
</linearGradient>
<linearGradient id="paint2_linear_7_6" x1="24.5" y1="395" x2="22.8325" y2="1094.63" gradientUnits="userSpaceOnUse">
<stop stop-color="#C126D2"/>
<stop offset="1" stop-color="#DA267A"/>
</linearGradient>
<linearGradient id="paint3_linear_7_6" x1="2010.2" y1="508.802" x2="959.483" y2="471.036" gradientUnits="userSpaceOnUse">
<stop stop-color="#C126D2"/>
<stop offset="1" stop-color="#DA267A"/>
</linearGradient>
<linearGradient id="paint4_linear_7_6" x1="2008.57" y1="535.464" x2="961.268" y2="442.759" gradientUnits="userSpaceOnUse">
<stop stop-color="#C126D2"/>
<stop offset="1" stop-color="#DA267A"/>
</linearGradient>
<linearGradient id="paint5_linear_7_6" x1="2005.54" y1="562.002" x2="964.532" y2="414.613" gradientUnits="userSpaceOnUse">
<stop stop-color="#C126D2"/>
<stop offset="1" stop-color="#DA267A"/>
</linearGradient>
<linearGradient id="paint6_linear_7_6" x1="2001.13" y1="588.347" x2="969.263" y2="386.677" gradientUnits="userSpaceOnUse">
<stop stop-color="#C126D2"/>
<stop offset="1" stop-color="#DA267A"/>
</linearGradient>
<linearGradient id="paint7_linear_7_6" x1="1995.35" y1="614.424" x2="975.451" y2="359.027" gradientUnits="userSpaceOnUse">
<stop stop-color="#C126D2"/>
<stop offset="1" stop-color="#DA267A"/>
</linearGradient>
<linearGradient id="paint8_linear_7_6" x1="1988.21" y1="640.164" x2="983.077" y2="331.739" gradientUnits="userSpaceOnUse">
<stop stop-color="#C126D2"/>
<stop offset="1" stop-color="#DA267A"/>
</linearGradient>
<linearGradient id="paint9_linear_7_6" x1="1979.74" y1="665.494" x2="992.121" y2="304.888" gradientUnits="userSpaceOnUse">
<stop stop-color="#C126D2"/>
<stop offset="1" stop-color="#DA267A"/>
</linearGradient>
<linearGradient id="paint10_linear_7_6" x1="1969.95" y1="690.346" x2="1002.56" y2="278.546" gradientUnits="userSpaceOnUse">
<stop stop-color="#C126D2"/>
<stop offset="1" stop-color="#DA267A"/>
</linearGradient>
<linearGradient id="paint11_linear_7_6" x1="1958.87" y1="714.652" x2="1014.36" y2="252.787" gradientUnits="userSpaceOnUse">
<stop stop-color="#C126D2"/>
<stop offset="1" stop-color="#DA267A"/>
</linearGradient>
<linearGradient id="paint12_linear_7_6" x1="1946.54" y1="738.344" x2="1027.49" y2="227.68" gradientUnits="userSpaceOnUse">
<stop stop-color="#C126D2"/>
<stop offset="1" stop-color="#DA267A"/>
</linearGradient>
<linearGradient id="paint13_linear_7_6" x1="1932.98" y1="761.359" x2="1041.92" y2="203.296" gradientUnits="userSpaceOnUse">
<stop stop-color="#C126D2"/>
<stop offset="1" stop-color="#DA267A"/>
</linearGradient>
<linearGradient id="paint14_linear_7_6" x1="1918.24" y1="783.632" x2="1057.61" y2="179.699" gradientUnits="userSpaceOnUse">
<stop stop-color="#C126D2"/>
<stop offset="1" stop-color="#DA267A"/>
</linearGradient>
<linearGradient id="paint15_linear_7_6" x1="1904.69" y1="809.45" x2="1076.84" y2="161.302" gradientUnits="userSpaceOnUse">
<stop stop-color="#C126D2"/>
<stop offset="1" stop-color="#DA267A"/>
</linearGradient>
<linearGradient id="paint16_linear_7_6" x1="1891.14" y1="818.944" x2="1086.42" y2="142.3" gradientUnits="userSpaceOnUse">
<stop stop-color="#C126D2"/>
<stop offset="1" stop-color="#DA267A"/>
</linearGradient>
<linearGradient id="paint17_linear_7_6" x1="1873.44" y1="838.949" x2="1105.24" y2="121.116" gradientUnits="userSpaceOnUse">
<stop stop-color="#C126D2"/>
<stop offset="1" stop-color="#DA267A"/>
</linearGradient>
<linearGradient id="paint18_linear_7_6" x1="1854.72" y1="858" x2="1125.14" y2="100.947" gradientUnits="userSpaceOnUse">
<stop stop-color="#C126D2"/>
<stop offset="1" stop-color="#DA267A"/>
</linearGradient>
<linearGradient id="paint19_linear_7_6" x1="1835.03" y1="876.046" x2="1146.07" y2="81.846" gradientUnits="userSpaceOnUse">
<stop stop-color="#C126D2"/>
<stop offset="1" stop-color="#DA267A"/>
</linearGradient>
<linearGradient id="paint20_linear_7_6" x1="1814.42" y1="893.036" x2="1167.96" y2="63.8669" gradientUnits="userSpaceOnUse">
<stop stop-color="#C126D2"/>
<stop offset="1" stop-color="#DA267A"/>
</linearGradient>
<linearGradient id="paint21_linear_7_6" x1="1792.95" y1="908.927" x2="1190.77" y2="47.0616" gradientUnits="userSpaceOnUse">
<stop stop-color="#C126D2"/>
<stop offset="1" stop-color="#DA267A"/>
</linearGradient>
<linearGradient id="paint22_linear_7_6" x1="1770.67" y1="923.669" x2="1214.43" y2="31.47" gradientUnits="userSpaceOnUse">
<stop stop-color="#C126D2"/>
<stop offset="1" stop-color="#DA267A"/>
</linearGradient>
<linearGradient id="paint23_linear_7_6" x1="1747.66" y1="937.226" x2="1238.87" y2="17.1378" gradientUnits="userSpaceOnUse">
<stop stop-color="#C126D2"/>
<stop offset="1" stop-color="#DA267A"/>
</linearGradient>
<linearGradient id="paint24_linear_7_6" x1="1723.97" y1="949.56" x2="1264.03" y2="4.10454" gradientUnits="userSpaceOnUse">
<stop stop-color="#C126D2"/>
<stop offset="1" stop-color="#DA267A"/>
</linearGradient>
<linearGradient id="paint25_linear_7_6" x1="1699.66" y1="960.638" x2="1289.84" y2="-7.59253" gradientUnits="userSpaceOnUse">
<stop stop-color="#C126D2"/>
<stop offset="1" stop-color="#DA267A"/>
</linearGradient>
<linearGradient id="paint26_linear_7_6" x1="1674.81" y1="970.427" x2="1316.22" y2="-17.9247" gradientUnits="userSpaceOnUse">
<stop stop-color="#C126D2"/>
<stop offset="1" stop-color="#DA267A"/>
</linearGradient>
<linearGradient id="paint27_linear_7_6" x1="1649.48" y1="978.902" x2="1343.11" y2="-26.8619" gradientUnits="userSpaceOnUse">
<stop stop-color="#C126D2"/>
<stop offset="1" stop-color="#DA267A"/>
</linearGradient>
<linearGradient id="paint28_linear_7_6" x1="1623.74" y1="986.041" x2="1370.43" y2="-34.3795" gradientUnits="userSpaceOnUse">
<stop stop-color="#C126D2"/>
<stop offset="1" stop-color="#DA267A"/>
</linearGradient>
<linearGradient id="paint29_linear_7_6" x1="1597.66" y1="991.822" x2="1398.1" y2="-40.4569" gradientUnits="userSpaceOnUse">
<stop stop-color="#C126D2"/>
<stop offset="1" stop-color="#DA267A"/>
</linearGradient>
<linearGradient id="paint30_linear_7_6" x1="1571.32" y1="996.23" x2="1426.06" y2="-45.0781" gradientUnits="userSpaceOnUse">
<stop stop-color="#C126D2"/>
<stop offset="1" stop-color="#DA267A"/>
</linearGradient>
<linearGradient id="paint31_linear_7_6" x1="1544.78" y1="999.254" x2="1454.21" y2="-48.2296" gradientUnits="userSpaceOnUse">
<stop stop-color="#C126D2"/>
<stop offset="1" stop-color="#DA267A"/>
</linearGradient>
<linearGradient id="paint32_linear_7_6" x1="1518.12" y1="1000.88" x2="1482.5" y2="-49.9033" gradientUnits="userSpaceOnUse">
<stop stop-color="#C126D2"/>
<stop offset="1" stop-color="#DA267A"/>
</linearGradient>
<linearGradient id="paint33_linear_7_6" x1="1491.41" y1="1001.12" x2="1510.83" y2="-50.0942" gradientUnits="userSpaceOnUse">
<stop stop-color="#C126D2"/>
<stop offset="1" stop-color="#DA267A"/>
</linearGradient>
<linearGradient id="paint34_linear_7_6" x1="1464.72" y1="999.953" x2="1539.13" y2="-48.802" gradientUnits="userSpaceOnUse">
<stop stop-color="#C126D2"/>
<stop offset="1" stop-color="#DA267A"/>
</linearGradient>
<linearGradient id="paint35_linear_7_6" x1="1438.13" y1="997.392" x2="1567.33" y2="-46.0305" gradientUnits="userSpaceOnUse">
<stop stop-color="#C126D2"/>
<stop offset="1" stop-color="#DA267A"/>
</linearGradient>
<linearGradient id="paint36_linear_7_6" x1="1411.72" y1="993.445" x2="1595.35" y2="-41.7869" gradientUnits="userSpaceOnUse">
<stop stop-color="#C126D2"/>
<stop offset="1" stop-color="#DA267A"/>
</linearGradient>
<linearGradient id="paint37_linear_7_6" x1="1438.13" y1="997.392" x2="1567.33" y2="-46.0305" gradientUnits="userSpaceOnUse">
<stop stop-color="#C126D2"/>
<stop offset="1" stop-color="#DA267A"/>
</linearGradient>
<linearGradient id="paint38_linear_7_6" x1="1385.54" y1="988.119" x2="1623.1" y2="-36.0829" gradientUnits="userSpaceOnUse">
<stop stop-color="#C126D2"/>
<stop offset="1" stop-color="#DA267A"/>
</linearGradient>
<linearGradient id="paint39_linear_7_6" x1="1359.68" y1="981.431" x2="1650.52" y2="-28.9344" gradientUnits="userSpaceOnUse">
<stop stop-color="#C126D2"/>
<stop offset="1" stop-color="#DA267A"/>
</linearGradient>
<linearGradient id="paint40_linear_7_6" x1="1334.21" y1="973.4" x2="1677.52" y2="-20.3603" gradientUnits="userSpaceOnUse">
<stop stop-color="#C126D2"/>
<stop offset="1" stop-color="#DA267A"/>
</linearGradient>
<linearGradient id="paint41_linear_7_6" x1="1309.19" y1="964.045" x2="1704.04" y2="-10.3852" gradientUnits="userSpaceOnUse">
<stop stop-color="#C126D2"/>
<stop offset="1" stop-color="#DA267A"/>
</linearGradient>
<linearGradient id="paint42_linear_7_6" x1="1284.69" y1="953.394" x2="1730" y2="0.964287" gradientUnits="userSpaceOnUse">
<stop stop-color="#C126D2"/>
<stop offset="1" stop-color="#DA267A"/>
</linearGradient>
<linearGradient id="paint43_linear_7_6" x1="1260.79" y1="941.476" x2="1755.34" y2="13.6572" gradientUnits="userSpaceOnUse">
<stop stop-color="#C126D2"/>
<stop offset="1" stop-color="#DA267A"/>
</linearGradient>
<linearGradient id="paint44_linear_7_6" x1="1237.54" y1="928.323" x2="1779.97" y2="27.6584" gradientUnits="userSpaceOnUse">
<stop stop-color="#C126D2"/>
<stop offset="1" stop-color="#DA267A"/>
</linearGradient>
<linearGradient id="paint45_linear_7_6" x1="1215.01" y1="913.971" x2="1803.83" y2="42.9294" gradientUnits="userSpaceOnUse">
<stop stop-color="#C126D2"/>
<stop offset="1" stop-color="#DA267A"/>
</linearGradient>
<linearGradient id="paint46_linear_7_6" x1="1193.27" y1="898.46" x2="1826.87" y2="59.4287" gradientUnits="userSpaceOnUse">
<stop stop-color="#C126D2"/>
<stop offset="1" stop-color="#DA267A"/>
</linearGradient>
<linearGradient id="paint47_linear_7_6" x1="1172.36" y1="881.833" x2="1849.01" y2="77.1108" gradientUnits="userSpaceOnUse">
<stop stop-color="#C126D2"/>
<stop offset="1" stop-color="#DA267A"/>
</linearGradient>
<linearGradient id="paint48_linear_7_6" x1="1152.36" y1="864.134" x2="1870.19" y2="95.9274" gradientUnits="userSpaceOnUse">
<stop stop-color="#C126D2"/>
<stop offset="1" stop-color="#DA267A"/>
</linearGradient>
<linearGradient id="paint49_linear_7_6" x1="1133.31" y1="845.412" x2="1890.36" y2="115.827" gradientUnits="userSpaceOnUse">
<stop stop-color="#C126D2"/>
<stop offset="1" stop-color="#DA267A"/>
</linearGradient>
<linearGradient id="paint50_linear_7_6" x1="1115.26" y1="825.719" x2="1909.46" y2="136.755" gradientUnits="userSpaceOnUse">
<stop stop-color="#C126D2"/>
<stop offset="1" stop-color="#DA267A"/>
</linearGradient>
<linearGradient id="paint51_linear_7_6" x1="1098.27" y1="805.108" x2="1927.44" y2="158.654" gradientUnits="userSpaceOnUse">
<stop stop-color="#C126D2"/>
<stop offset="1" stop-color="#DA267A"/>
</linearGradient>
<linearGradient id="paint52_linear_7_6" x1="1082.38" y1="783.637" x2="1944.25" y2="181.463" gradientUnits="userSpaceOnUse">
<stop stop-color="#C126D2"/>
<stop offset="1" stop-color="#DA267A"/>
</linearGradient>
<linearGradient id="paint53_linear_7_6" x1="1067.64" y1="761.363" x2="1959.84" y2="205.121" gradientUnits="userSpaceOnUse">
<stop stop-color="#C126D2"/>
<stop offset="1" stop-color="#DA267A"/>
</linearGradient>
<linearGradient id="paint54_linear_7_6" x1="1054.08" y1="738.348" x2="1974.17" y2="229.563" gradientUnits="userSpaceOnUse">
<stop stop-color="#C126D2"/>
<stop offset="1" stop-color="#DA267A"/>
</linearGradient>
<linearGradient id="paint55_linear_7_6" x1="1041.75" y1="714.655" x2="1987.21" y2="254.721" gradientUnits="userSpaceOnUse">
<stop stop-color="#C126D2"/>
<stop offset="1" stop-color="#DA267A"/>
</linearGradient>
<linearGradient id="paint56_linear_7_6" x1="1030.67" y1="690.35" x2="1998.9" y2="280.527" gradientUnits="userSpaceOnUse">
<stop stop-color="#C126D2"/>
<stop offset="1" stop-color="#DA267A"/>
</linearGradient>
<linearGradient id="paint57_linear_7_6" x1="1020.88" y1="665.498" x2="2009.24" y2="306.91" gradientUnits="userSpaceOnUse">
<stop stop-color="#C126D2"/>
<stop offset="1" stop-color="#DA267A"/>
</linearGradient>
<linearGradient id="paint58_linear_7_6" x1="1012.41" y1="640.167" x2="2018.17" y2="333.798" gradientUnits="userSpaceOnUse">
<stop stop-color="#C126D2"/>
<stop offset="1" stop-color="#DA267A"/>
</linearGradient>
<linearGradient id="paint59_linear_7_6" x1="1005.27" y1="614.428" x2="2025.69" y2="361.116" gradientUnits="userSpaceOnUse">
<stop stop-color="#C126D2"/>
<stop offset="1" stop-color="#DA267A"/>
</linearGradient>
<linearGradient id="paint60_linear_7_6" x1="999.49" y1="588.351" x2="2031.77" y2="388.79" gradientUnits="userSpaceOnUse">
<stop stop-color="#C126D2"/>
<stop offset="1" stop-color="#DA267A"/>
</linearGradient>
<linearGradient id="paint61_linear_7_6" x1="995.082" y1="562.006" x2="2036.39" y2="416.745" gradientUnits="userSpaceOnUse">
<stop stop-color="#C126D2"/>
<stop offset="1" stop-color="#DA267A"/>
</linearGradient>
<linearGradient id="paint62_linear_7_6" x1="992.058" y1="535.467" x2="2039.54" y2="444.903" gradientUnits="userSpaceOnUse">
<stop stop-color="#C126D2"/>
<stop offset="1" stop-color="#DA267A"/>
</linearGradient>
<linearGradient id="paint63_linear_7_6" x1="990.427" y1="508.806" x2="2041.22" y2="473.187" gradientUnits="userSpaceOnUse">
<stop stop-color="#C126D2"/>
<stop offset="1" stop-color="#DA267A"/>
</linearGradient>
<linearGradient id="paint64_linear_7_6" x1="1464.72" y1="999.953" x2="1539.13" y2="-48.8022" gradientUnits="userSpaceOnUse">
<stop stop-color="#C126D2"/>
<stop offset="1" stop-color="#DA267A"/>
</linearGradient>
<clipPath id="clip0_7_6">
<rect width="1512" height="982" fill="white"/>
</clipPath>
</defs>
</svg>
