<svg width="1512" height="982" viewBox="0 0 1512 982" fill="none" xmlns="http://www.w3.org/2000/svg">
<g clip-path="url(#clip0_88_6)">
<rect width="1512" height="982" fill="url(#paint0_linear_88_6)"/>
<g opacity="0.5" filter="url(#filter0_f_88_6)">
<circle cx="1364.5" cy="606.5" r="339.5" fill="white"/>
</g>
<g opacity="0.5" filter="url(#filter1_f_88_6)">
<circle cx="490.5" cy="-137.5" r="339.5" fill="white"/>
</g>
<g opacity="0.5" filter="url(#filter2_f_88_6)">
<circle cx="24.5" cy="734.5" r="339.5" fill="white"/>
</g>
<g opacity="0.2">
<path fill-rule="evenodd" clip-rule="evenodd" d="M990.423 473.351C967.276 1130.28 1176.8 1670.72 1458.4 1680.47C1740.01 1690.22 1987.05 1165.57 2010.2 508.643C2033.35 -148.285 1823.83 -688.731 1542.22 -698.476C1260.62 -708.222 1013.57 -183.577 990.423 473.351Z" stroke="white" stroke-width="3.80145"/>
<path fill-rule="evenodd" clip-rule="evenodd" d="M992.045 446.69C934.549 1101.51 1115.5 1652.18 1396.21 1676.65C1676.91 1701.12 1951.08 1190.12 2008.58 535.304C2066.07 -119.512 1885.13 -670.182 1604.42 -694.653C1323.71 -719.123 1049.54 -208.126 992.045 446.69Z" stroke="white" stroke-width="3.80145"/>
<path fill-rule="evenodd" clip-rule="evenodd" d="M995.06 420.15C903.373 1071.06 1055.25 1630.45 1334.3 1669.57C1613.34 1708.7 1913.88 1212.75 2005.56 561.844C2097.25 -89.0659 1945.37 -648.452 1666.33 -687.579C1387.28 -726.707 1086.75 -230.76 995.06 420.15Z" stroke="white" stroke-width="3.80145"/>
<path fill-rule="evenodd" clip-rule="evenodd" d="M999.46 393.804C873.832 1039.02 996.23 1605.59 1272.84 1659.27C1549.45 1712.95 1875.53 1233.41 2001.16 588.19C2126.79 -57.0295 2004.39 -623.598 1727.78 -677.276C1451.17 -730.954 1125.09 -251.415 999.46 393.804Z" stroke="white" stroke-width="3.80145"/>
<path fill-rule="evenodd" clip-rule="evenodd" d="M1005.23 367.725C846.01 1005.48 938.588 1577.68 1212.01 1645.76C1485.44 1713.84 1836.17 1252.03 1995.39 614.269C2154.61 -23.491 2062.04 -595.688 1788.61 -663.77C1515.19 -731.851 1164.46 -270.035 1005.23 367.725Z" stroke="white" stroke-width="3.80145"/>
<path fill-rule="evenodd" clip-rule="evenodd" d="M1012.36 341.983C819.98 970.536 882.484 1546.79 1151.97 1629.09C1421.46 1711.39 1795.88 1268.56 1988.26 640.011C2180.64 11.4576 2118.14 -564.801 1848.65 -647.099C1579.17 -729.397 1204.75 -286.57 1012.36 341.983Z" stroke="white" stroke-width="3.80145"/>
<path fill-rule="evenodd" clip-rule="evenodd" d="M1020.83 316.65C795.815 934.273 828.075 1513.01 1092.88 1609.3C1357.69 1705.59 1754.78 1282.97 1979.79 665.344C2204.81 47.7207 2172.55 -531.019 1907.74 -627.308C1642.93 -723.597 1245.85 -300.972 1020.83 316.65Z" stroke="white" stroke-width="3.80145"/>
<path fill-rule="evenodd" clip-rule="evenodd" d="M1030.61 291.795C773.581 896.795 775.508 1476.43 1034.92 1586.45C1294.32 1696.46 1712.98 1295.2 1970.01 690.199C2227.04 85.1987 2225.11 -494.436 1965.71 -604.452C1706.3 -714.468 1287.64 -313.205 1030.61 291.795Z" stroke="white" stroke-width="3.80145"/>
<path fill-rule="evenodd" clip-rule="evenodd" d="M1041.68 267.486C753.339 858.205 724.927 1437.15 978.222 1560.59C1231.52 1684.03 1670.6 1305.23 1958.94 714.508C2247.28 123.789 2275.7 -455.153 2022.4 -578.594C1769.11 -702.036 1330.02 -323.233 1041.68 267.486Z" stroke="white" stroke-width="3.80145"/>
<path fill-rule="evenodd" clip-rule="evenodd" d="M1054.01 243.79C735.145 818.608 676.472 1395.27 922.959 1531.8C1169.45 1668.33 1627.75 1313.02 1946.61 738.204C2265.48 163.386 2324.15 -413.276 2077.66 -549.804C1831.18 -686.333 1372.87 -331.029 1054.01 243.79Z" stroke="white" stroke-width="3.80145"/>
<path fill-rule="evenodd" clip-rule="evenodd" d="M1067.56 220.771C719.048 778.114 630.276 1350.91 869.279 1500.16C1108.28 1649.4 1584.56 1318.57 1933.07 761.223C2281.58 203.88 2370.35 -368.92 2131.34 -518.162C1892.34 -667.404 1416.07 -336.572 1067.56 220.771Z" stroke="white" stroke-width="3.80145"/>
<path fill-rule="evenodd" clip-rule="evenodd" d="M1082.29 198.492C705.093 736.832 586.464 1304.2 817.329 1465.75C1048.19 1627.29 1541.13 1321.84 1918.33 783.501C2295.53 245.162 2414.16 -322.208 2183.29 -483.753C1952.43 -645.299 1459.49 -339.847 1082.29 198.492Z" stroke="white" stroke-width="3.80145"/>
<path fill-rule="evenodd" clip-rule="evenodd" d="M1100.51 181.361C695.651 699.222 547.491 1259.61 769.586 1433.01C991.68 1606.42 1499.93 1327.18 1904.78 809.324C2309.64 291.463 2457.8 -268.92 2235.71 -442.327C2013.61 -615.734 1505.37 -336.499 1100.51 181.361Z" stroke="white" stroke-width="3.80145"/>
<path fill-rule="evenodd" clip-rule="evenodd" d="M1109.38 163.172C686.692 666.588 519.065 1221.46 734.973 1402.51C950.88 1583.56 1468.56 1322.24 1891.25 818.821C2313.93 315.405 2481.56 -239.466 2265.65 -420.518C2049.74 -601.571 1532.06 -340.243 1109.38 163.172Z" stroke="white" stroke-width="3.80145"/>
<path fill-rule="evenodd" clip-rule="evenodd" d="M1127.07 143.162C678.617 623.766 482.181 1169.1 688.317 1361.21C894.452 1553.31 1425.1 1319.44 1873.55 838.832C2322.01 358.227 2518.44 -187.11 2312.31 -379.214C2106.17 -571.318 1575.52 -337.442 1127.07 143.162Z" stroke="white" stroke-width="3.80145"/>
<path fill-rule="evenodd" clip-rule="evenodd" d="M1145.79 124.105C672.795 580.58 448.087 1114.89 643.886 1317.52C839.686 1520.15 1381.85 1314.36 1854.84 857.889C2327.83 401.413 2552.54 -132.896 2356.74 -335.525C2160.94 -538.154 1618.78 -332.371 1145.79 124.105Z" stroke="white" stroke-width="3.80145"/>
<path fill-rule="evenodd" clip-rule="evenodd" d="M1165.47 106.053C669.241 537.148 416.877 1058.97 601.804 1271.56C786.73 1484.16 1338.92 1307.04 1835.15 875.94C2331.38 444.845 2583.75 -76.972 2398.82 -289.571C2213.89 -502.169 1661.71 -325.042 1165.47 106.053Z" stroke="white" stroke-width="3.80145"/>
<path fill-rule="evenodd" clip-rule="evenodd" d="M1186.08 89.0564C667.965 493.59 388.637 1001.48 562.183 1223.47C735.729 1445.46 1296.43 1297.47 1814.55 892.937C2332.66 488.403 2611.99 -19.491 2438.44 -241.476C2264.89 -463.462 1704.19 -315.477 1186.08 89.0564Z" stroke="white" stroke-width="3.80145"/>
<path fill-rule="evenodd" clip-rule="evenodd" d="M1207.54 73.1646C668.969 450.028 363.443 942.607 525.133 1173.37C686.824 1404.14 1254.5 1285.7 1793.08 908.835C2331.65 531.971 2637.18 39.392 2475.49 -191.372C2313.8 -422.136 1746.12 -303.699 1207.54 73.1646Z" stroke="white" stroke-width="3.80145"/>
<path fill-rule="evenodd" clip-rule="evenodd" d="M1229.81 58.415C672.253 406.575 341.366 882.489 490.758 1121.4C640.149 1360.31 1213.25 1271.74 1770.81 923.584C2328.37 575.424 2659.26 99.5101 2509.87 -139.4C2360.47 -378.31 1787.38 -289.745 1229.81 58.415Z" stroke="white" stroke-width="3.80145"/>
<path fill-rule="evenodd" clip-rule="evenodd" d="M1252.82 44.8509C677.805 363.353 322.465 821.298 459.148 1067.7C595.831 1314.1 1172.78 1255.65 1747.8 937.148C2322.82 618.646 2678.16 160.701 2541.47 -85.7C2404.79 -332.101 1827.84 -273.652 1252.82 44.8509Z" stroke="white" stroke-width="3.80145"/>
<path fill-rule="evenodd" clip-rule="evenodd" d="M1276.51 32.5097C685.613 320.481 306.792 759.202 430.393 1012.42C553.993 1265.64 1133.21 1237.46 1724.11 949.489C2315.01 661.517 2693.83 222.797 2570.23 -30.4195C2446.63 -283.636 1867.41 -255.462 1276.51 32.5097Z" stroke="white" stroke-width="3.80145"/>
<path fill-rule="evenodd" clip-rule="evenodd" d="M1300.82 21.4273C695.654 278.079 294.392 696.372 404.57 955.711C514.749 1215.05 1094.65 1217.23 1699.81 960.575C2304.97 703.923 2706.23 285.631 2596.05 26.292C2485.87 -233.047 1905.98 -235.225 1300.82 21.4273Z" stroke="white" stroke-width="3.80145"/>
<path fill-rule="evenodd" clip-rule="evenodd" d="M1325.66 11.6299C707.9 236.258 285.296 632.978 381.751 897.727C478.206 1162.48 1057.19 1195 1674.96 970.372C2292.72 745.744 2715.33 349.025 2618.87 84.2754C2522.42 -180.474 1943.43 -212.999 1325.66 11.6299Z" stroke="white" stroke-width="3.80145"/>
<path fill-rule="evenodd" clip-rule="evenodd" d="M1350.99 3.14634C722.318 195.136 279.531 569.194 361.997 838.628C444.464 1108.06 1020.96 1170.84 1649.63 978.856C2278.3 786.866 2721.09 412.808 2638.62 143.374C2556.16 -126.061 1979.67 -188.843 1350.99 3.14634Z" stroke="white" stroke-width="3.80145"/>
<path fill-rule="evenodd" clip-rule="evenodd" d="M1376.73 -3.99971C738.869 154.824 277.112 505.196 345.364 778.577C413.617 1051.96 986.034 1144.83 1623.89 986.002C2261.75 827.178 2723.51 476.806 2655.26 203.425C2587.01 -69.9564 2014.59 -162.824 1376.73 -3.99971Z" stroke="white" stroke-width="3.80145"/>
<path fill-rule="evenodd" clip-rule="evenodd" d="M1402.8 -9.78889C757.507 115.434 278.045 441.159 331.896 717.738C385.748 994.317 952.52 1117.01 1597.82 991.791C2243.12 866.568 2722.58 540.843 2668.73 264.265C2614.87 -12.3143 2048.1 -135.012 1402.8 -9.78889Z" stroke="white" stroke-width="3.80145"/>
<path fill-rule="evenodd" clip-rule="evenodd" d="M1429.15 -14.2059C778.181 77.0735 282.329 377.259 321.631 656.277C360.934 935.295 920.508 1087.49 1571.48 996.208C2222.44 904.929 2718.29 604.743 2678.99 325.725C2639.69 46.707 2080.11 -105.485 1429.15 -14.2059Z" stroke="white" stroke-width="3.80145"/>
<path fill-rule="evenodd" clip-rule="evenodd" d="M1455.69 -17.2379C800.833 39.8474 289.95 313.671 314.596 594.363C339.242 875.056 890.084 1056.33 1544.94 999.24C2199.79 942.155 2710.67 668.332 2686.03 387.639C2661.38 106.946 2110.54 -74.3232 1455.69 -17.2379Z" stroke="white" stroke-width="3.80145"/>
<path fill-rule="evenodd" clip-rule="evenodd" d="M1482.35 -18.8769C825.404 3.85784 300.89 250.568 310.812 532.166C320.734 813.764 861.334 1023.61 1518.28 1000.88C2175.22 978.144 2699.73 731.434 2689.81 449.836C2679.89 168.238 2139.29 -41.6117 1482.35 -18.8769Z" stroke="white" stroke-width="3.80145"/>
<path fill-rule="evenodd" clip-rule="evenodd" d="M1509.06 -19.1184C851.824 -30.7965 315.117 188.125 310.288 469.856C305.458 751.587 834.335 989.443 1491.57 1001.12C2148.8 1012.8 2685.51 793.877 2690.33 512.146C2695.16 230.415 2166.29 -7.4403 1509.06 -19.1184Z" stroke="white" stroke-width="3.80145"/>
<path fill-rule="evenodd" clip-rule="evenodd" d="M1535.74 -17.9615C880.021 -64.0204 332.593 126.512 313.026 407.604C293.458 688.697 809.162 953.905 1464.88 999.964C2120.6 1046.02 2668.03 855.491 2687.6 574.398C2707.16 293.306 2191.46 28.0974 1535.74 -17.9615Z" stroke="white" stroke-width="3.80145"/>
<path fill-rule="evenodd" clip-rule="evenodd" d="M1562.33 -15.4099C909.919 -95.7234 353.269 65.8975 319.017 345.581C284.765 625.264 785.882 917.099 1438.29 997.412C2090.7 1077.73 2647.35 916.105 2681.61 636.422C2715.86 356.739 2214.74 64.9036 1562.33 -15.4099Z" stroke="white" stroke-width="3.80145"/>
<path fill-rule="evenodd" clip-rule="evenodd" d="M1588.75 -11.47C941.435 -125.818 377.089 6.44871 328.247 283.956C279.405 561.463 764.561 879.124 1411.87 993.472C2059.19 1107.82 2623.53 975.554 2672.38 698.047C2721.22 420.539 2236.06 102.878 1588.75 -11.47Z" stroke="white" stroke-width="3.80145"/>
<path fill-rule="evenodd" clip-rule="evenodd" d="M1562.33 -15.4099C909.919 -95.7234 353.269 65.8975 319.017 345.581C284.765 625.264 785.882 917.099 1438.29 997.412C2090.7 1077.73 2647.35 916.105 2681.61 636.422C2715.86 356.739 2214.74 64.9036 1562.33 -15.4099Z" stroke="white" stroke-width="3.80145"/>
<path fill-rule="evenodd" clip-rule="evenodd" d="M1614.92 -6.15296C974.483 -154.222 403.988 -51.6722 340.689 222.898C277.39 497.469 745.257 840.086 1385.7 988.155C2026.14 1136.22 2596.63 1033.67 2659.93 759.104C2723.23 484.533 2255.37 141.916 1614.92 -6.15296Z" stroke="white" stroke-width="3.80145"/>
<path fill-rule="evenodd" clip-rule="evenodd" d="M1640.79 0.526695C1008.97 -180.858 433.892 -108.306 356.309 162.576C278.727 433.457 728.021 800.091 1359.84 981.476C1991.65 1162.86 2566.73 1090.31 2644.31 819.426C2721.89 548.545 2272.6 181.911 1640.79 0.526695Z" stroke="white" stroke-width="3.80145"/>
<path fill-rule="evenodd" clip-rule="evenodd" d="M1666.26 8.55105C1044.81 -205.651 466.719 -163.296 375.066 103.154C283.414 369.604 712.904 759.249 1334.36 973.452C1955.82 1187.65 2533.9 1145.3 2625.56 878.849C2717.21 612.399 2287.72 222.753 1666.26 8.55105Z" stroke="white" stroke-width="3.80145"/>
<path fill-rule="evenodd" clip-rule="evenodd" d="M1691.28 17.8972C1081.89 -228.536 502.378 -216.494 396.906 44.7943C291.434 306.082 699.943 717.672 1309.34 964.105C1918.73 1210.54 2498.24 1198.5 2603.72 937.208C2709.19 675.92 2300.68 264.33 1691.28 17.8972Z" stroke="white" stroke-width="3.80145"/>
<path fill-rule="evenodd" clip-rule="evenodd" d="M1715.78 28.5403C1120.12 -249.448 540.773 -267.752 421.771 -12.342C302.769 243.068 689.177 675.473 1284.84 953.462C1880.5 1231.45 2459.85 1249.75 2578.85 994.344C2697.85 738.934 2311.44 306.529 1715.78 28.5403Z" stroke="white" stroke-width="3.80145"/>
<path fill-rule="evenodd" clip-rule="evenodd" d="M1739.69 40.4512C1159.4 -268.331 581.798 -316.93 449.592 -68.0985C317.386 180.733 680.634 632.769 1260.93 941.551C1841.23 1250.33 2418.82 1298.93 2551.03 1050.1C2683.24 801.269 2319.99 349.233 1739.69 40.4512Z" stroke="white" stroke-width="3.80145"/>
<path fill-rule="evenodd" clip-rule="evenodd" d="M1762.94 53.5969C1199.6 -285.132 625.341 -363.894 480.293 -122.323C335.245 119.249 674.338 589.676 1237.68 928.406C1801.02 1267.13 2375.28 1345.9 2520.33 1104.33C2665.38 862.753 2326.28 392.326 1762.94 53.5969Z" stroke="white" stroke-width="3.80145"/>
<path fill-rule="evenodd" clip-rule="evenodd" d="M1785.48 67.9413C1240.63 -299.807 671.282 -408.515 513.79 -174.866C356.298 58.7835 670.306 546.313 1215.15 914.061C1759.99 1281.81 2329.34 1390.52 2486.83 1156.87C2644.32 923.219 2330.32 435.689 1785.48 67.9413Z" stroke="white" stroke-width="3.80145"/>
<path fill-rule="evenodd" clip-rule="evenodd" d="M1807.23 83.4456C1282.38 -312.313 719.495 -450.67 549.99 -225.584C380.486 -0.496974 668.548 502.798 1193.4 898.557C1718.24 1294.32 2281.13 1432.67 2450.63 1207.59C2620.14 982.499 2332.07 479.204 1807.23 83.4456Z" stroke="white" stroke-width="3.80145"/>
<path fill-rule="evenodd" clip-rule="evenodd" d="M1828.14 100.067C1324.72 -322.618 769.849 -490.245 588.796 -274.338C407.744 -58.4306 669.071 459.251 1172.49 881.936C1675.9 1304.62 2230.77 1472.25 2411.83 1256.34C2592.88 1040.43 2331.55 522.752 1828.14 100.067Z" stroke="white" stroke-width="3.80145"/>
<path fill-rule="evenodd" clip-rule="evenodd" d="M1848.15 117.759C1367.54 -330.693 822.204 -527.13 630.1 -320.994C437.996 -114.858 671.872 415.79 1152.48 864.243C1633.08 1312.7 2178.42 1509.13 2370.52 1303C2562.63 1096.86 2328.75 566.212 1848.15 117.759Z" stroke="white" stroke-width="3.80145"/>
<path fill-rule="evenodd" clip-rule="evenodd" d="M1867.2 136.475C1410.73 -336.516 876.418 -561.224 673.789 -365.424C471.16 -169.625 676.944 372.536 1133.42 845.527C1589.89 1318.52 2124.2 1543.23 2326.83 1347.43C2529.46 1151.63 2323.68 609.466 1867.2 136.475Z" stroke="white" stroke-width="3.80145"/>
<path fill-rule="evenodd" clip-rule="evenodd" d="M1885.25 156.163C1454.16 -340.07 932.342 -592.433 719.744 -407.507C507.145 -222.581 684.272 329.607 1115.37 825.84C1546.46 1322.07 2068.28 1574.44 2280.88 1389.51C2493.48 1204.58 2316.35 652.396 1885.25 156.163Z" stroke="white" stroke-width="3.80145"/>
<path fill-rule="evenodd" clip-rule="evenodd" d="M1902.25 176.768C1497.72 -341.346 989.824 -620.673 767.838 -447.127C545.853 -273.581 693.837 287.12 1098.37 805.234C1502.9 1323.35 2010.8 1602.68 2232.78 1429.13C2454.77 1255.58 2306.79 694.883 1902.25 176.768Z" stroke="white" stroke-width="3.80145"/>
<path fill-rule="evenodd" clip-rule="evenodd" d="M1918.15 198.235C1541.28 -340.341 1048.7 -645.867 817.939 -484.177C587.175 -322.486 705.612 245.192 1082.48 783.768C1459.34 1322.34 1951.92 1627.87 2182.68 1466.18C2413.45 1304.49 2295.01 736.811 1918.15 198.235Z" stroke="white" stroke-width="3.80145"/>
<path fill-rule="evenodd" clip-rule="evenodd" d="M1932.9 220.504C1584.74 -337.058 1108.82 -667.944 869.912 -518.553C631.002 -369.161 719.566 203.937 1067.73 761.499C1415.89 1319.06 1891.8 1649.95 2130.71 1500.55C2369.62 1351.16 2281.06 778.065 1932.9 220.504Z" stroke="white" stroke-width="3.80145"/>
<path fill-rule="evenodd" clip-rule="evenodd" d="M1946.46 243.514C1627.96 -331.504 1170.01 -686.845 923.612 -550.162C677.211 -413.479 735.66 163.47 1054.16 738.488C1372.67 1313.51 1830.61 1668.85 2077.01 1532.16C2323.41 1395.48 2264.96 818.533 1946.46 243.514Z" stroke="white" stroke-width="3.80145"/>
<path fill-rule="evenodd" clip-rule="evenodd" d="M1958.8 267.203C1670.83 -323.697 1232.11 -702.518 978.892 -578.917C725.675 -455.317 753.85 123.9 1041.82 714.799C1329.79 1305.7 1768.51 1684.52 2021.73 1560.92C2274.95 1437.32 2246.77 858.103 1958.8 267.203Z" stroke="white" stroke-width="3.80145"/>
<path fill-rule="evenodd" clip-rule="evenodd" d="M1969.89 291.505C1713.23 -313.656 1294.94 -714.918 1035.6 -604.74C776.263 -494.561 774.085 85.3361 1030.74 690.497C1287.39 1295.66 1705.68 1696.92 1965.02 1586.74C2224.36 1476.56 2226.54 896.666 1969.89 291.505Z" stroke="white" stroke-width="3.80145"/>
<path fill-rule="evenodd" clip-rule="evenodd" d="M1979.68 316.354C1755.05 -301.41 1358.33 -724.014 1093.59 -627.559C828.836 -531.104 796.312 47.8843 1020.94 665.648C1245.57 1283.41 1642.29 1706.02 1907.04 1609.56C2171.79 1513.11 2204.31 934.118 1979.68 316.354Z" stroke="white" stroke-width="3.80145"/>
<path fill-rule="evenodd" clip-rule="evenodd" d="M1988.17 341.682C1796.18 -286.991 1422.12 -729.779 1152.68 -647.312C883.25 -564.846 820.468 11.6473 1012.46 640.321C1204.45 1268.99 1578.5 1711.78 1847.94 1629.31C2117.37 1546.85 2180.16 970.355 1988.17 341.682Z" stroke="white" stroke-width="3.80145"/>
<path fill-rule="evenodd" clip-rule="evenodd" d="M1995.31 367.419C1836.49 -270.441 1486.12 -732.198 1212.73 -663.946C939.353 -595.693 846.486 -23.2759 1005.31 614.584C1164.13 1252.44 1514.51 1714.2 1787.89 1645.95C2061.27 1577.7 2154.14 1005.28 1995.31 367.419Z" stroke="white" stroke-width="3.80145"/>
<path fill-rule="evenodd" clip-rule="evenodd" d="M2001.1 393.495C1875.88 -251.803 1550.15 -731.265 1273.57 -677.413C996.996 -623.562 874.298 -56.7898 999.521 588.508C1124.74 1233.81 1450.47 1713.27 1727.05 1659.42C2003.63 1605.56 2126.32 1038.79 2001.1 393.495Z" stroke="white" stroke-width="3.80145"/>
<path fill-rule="evenodd" clip-rule="evenodd" d="M2005.52 419.838C1914.24 -231.129 1614.05 -726.981 1335.04 -687.679C1056.02 -648.376 903.825 -88.8021 995.104 562.165C1086.38 1213.13 1386.57 1708.98 1665.59 1669.68C1944.61 1630.38 2096.8 1070.8 2005.52 419.838Z" stroke="white" stroke-width="3.80145"/>
<path fill-rule="evenodd" clip-rule="evenodd" d="M2008.55 446.375C1951.46 -208.477 1677.64 -719.36 1396.95 -694.714C1116.26 -670.068 934.987 -119.226 992.072 535.627C1049.16 1190.48 1322.98 1701.36 1603.67 1676.72C1884.37 1652.07 2065.64 1101.23 2008.55 446.375Z" stroke="white" stroke-width="3.80145"/>
<path fill-rule="evenodd" clip-rule="evenodd" d="M2010.19 473.036C1987.45 -183.907 1740.74 -708.42 1459.15 -698.498C1177.55 -688.576 967.698 -147.976 990.433 508.966C1013.17 1165.91 1259.88 1690.42 1541.48 1680.5C1823.07 1670.58 2032.92 1129.98 2010.19 473.036Z" stroke="white" stroke-width="3.80145"/>
<path fill-rule="evenodd" clip-rule="evenodd" d="M1535.74 -17.9617C880.021 -64.0206 332.592 126.512 313.025 407.604C293.458 688.697 809.161 953.905 1464.88 999.964C2120.6 1046.02 2668.03 855.491 2687.6 574.398C2707.16 293.306 2191.46 28.0972 1535.74 -17.9617Z" stroke="white" stroke-width="3.80145"/>
</g>
</g>
<defs>
<filter id="filter0_f_88_6" x="719" y="-39" width="1291" height="1291" filterUnits="userSpaceOnUse" color-interpolation-filters="sRGB">
<feFlood flood-opacity="0" result="BackgroundImageFix"/>
<feBlend mode="normal" in="SourceGraphic" in2="BackgroundImageFix" result="shape"/>
<feGaussianBlur stdDeviation="153" result="effect1_foregroundBlur_88_6"/>
</filter>
<filter id="filter1_f_88_6" x="-155" y="-783" width="1291" height="1291" filterUnits="userSpaceOnUse" color-interpolation-filters="sRGB">
<feFlood flood-opacity="0" result="BackgroundImageFix"/>
<feBlend mode="normal" in="SourceGraphic" in2="BackgroundImageFix" result="shape"/>
<feGaussianBlur stdDeviation="153" result="effect1_foregroundBlur_88_6"/>
</filter>
<filter id="filter2_f_88_6" x="-621" y="89" width="1291" height="1291" filterUnits="userSpaceOnUse" color-interpolation-filters="sRGB">
<feFlood flood-opacity="0" result="BackgroundImageFix"/>
<feBlend mode="normal" in="SourceGraphic" in2="BackgroundImageFix" result="shape"/>
<feGaussianBlur stdDeviation="153" result="effect1_foregroundBlur_88_6"/>
</filter>
<linearGradient id="paint0_linear_88_6" x1="641.5" y1="-122.5" x2="784.317" y2="1311.82" gradientUnits="userSpaceOnUse">
<stop stop-color="#FF8125"/>
<stop offset="0.813535" stop-color="#FFDF6C"/>
</linearGradient>
<clipPath id="clip0_88_6">
<rect width="1512" height="982" fill="white"/>
</clipPath>
</defs>
</svg>
