<svg width="100" height="100" viewBox="0 0 100 100" fill="none" xmlns="http://www.w3.org/2000/svg">
<rect width="100" height="100" rx="50" fill="white"/>
<path d="M80.9069 29.7169C78.0164 26.5204 73.1876 24.9221 66.1825 24.9221H65.3663V24.7861C65.3663 19.0732 65.3663 12 52.5802 12H47.4114C34.6252 12 34.6252 19.1072 34.6252 24.7861V24.9561H33.8091C26.7699 24.9561 21.9752 26.5544 19.0847 29.7509C15.7181 33.4916 15.8201 38.5244 16.1602 41.959L16.1942 42.197L16.4576 44.9626C16.5061 45.4719 16.7804 45.932 17.2085 46.2121C18.024 46.7458 19.3888 47.6255 20.2069 48.08C20.6829 48.386 21.193 48.6581 21.7031 48.9301C27.5181 52.1266 33.9111 54.269 40.4062 55.3232C40.7123 58.5197 42.1065 62.2603 49.5537 62.2603C57.0009 62.2603 58.4632 58.5537 58.7012 55.2551C65.6384 54.133 72.3375 51.7186 78.3905 48.182C78.5945 48.08 78.7305 47.9779 78.9006 47.8759C80.2496 47.1134 81.6493 46.1739 82.925 45.2536C83.3093 44.9763 83.5551 44.5476 83.6074 44.0766L83.6614 43.5912L83.8314 41.993C83.8654 41.7889 83.8654 41.6189 83.8994 41.3809C84.1714 37.9463 84.1034 33.2535 80.9069 29.7169ZM53.7024 53.0108C53.7024 56.6154 53.7024 57.1595 49.5197 57.1595C45.337 57.1595 45.337 56.5134 45.337 53.0448V48.7601H53.7024V53.0108ZM39.488 24.9221V24.7861C39.488 19.0052 39.488 16.8628 47.4114 16.8628H52.5802C60.5035 16.8628 60.5035 19.0392 60.5035 24.7861V24.9561H39.488V24.9221Z" fill="url(#paint0_linear_87_108)"/>
<g filter="url(#filter0_i_87_108)">
<path d="M80.1707 52.685C81.3731 52.1128 82.758 53.0659 82.6377 54.3921L81.4171 67.8373C80.703 74.6384 77.9145 81.5755 62.9521 81.5755H37.0398C22.0773 81.5755 19.2888 74.6384 18.5747 67.8713L17.4161 55.1266C17.2969 53.8158 18.6502 52.8637 19.8494 53.4063C23.724 55.1593 30.8759 58.2695 35.2938 59.4266C35.8526 59.5729 36.3045 59.9728 36.5491 60.496C38.6132 64.9103 43.0898 67.2592 49.5538 67.2592C55.9541 67.2592 60.4872 64.8199 62.558 60.3947C62.8031 59.8711 63.2555 59.4713 63.8145 59.3242C68.5057 58.0898 76.1183 54.6133 80.1707 52.685Z" fill="url(#paint1_linear_87_108)"/>
</g>
<defs>
<filter id="filter0_i_87_108" x="17.4087" y="52.5154" width="65.2363" height="39.2618" filterUnits="userSpaceOnUse" color-interpolation-filters="sRGB">
<feFlood flood-opacity="0" result="BackgroundImageFix"/>
<feBlend mode="normal" in="SourceGraphic" in2="BackgroundImageFix" result="shape"/>
<feColorMatrix in="SourceAlpha" type="matrix" values="0 0 0 0 0 0 0 0 0 0 0 0 0 0 0 0 0 0 127 0" result="hardAlpha"/>
<feOffset dy="10.2017"/>
<feGaussianBlur stdDeviation="6.80112"/>
<feComposite in2="hardAlpha" operator="arithmetic" k2="-1" k3="1"/>
<feColorMatrix type="matrix" values="0 0 0 0 1 0 0 0 0 1 0 0 0 0 1 0 0 0 0.45 0"/>
<feBlend mode="normal" in2="shape" result="effect1_innerShadow_87_108"/>
</filter>
<linearGradient id="paint0_linear_87_108" x1="50" y1="12" x2="51.6962" y2="79.093" gradientUnits="userSpaceOnUse">
<stop stop-color="#FF8125"/>
<stop offset="0.813535" stop-color="#FFDF6C"/>
</linearGradient>
<linearGradient id="paint1_linear_87_108" x1="50.0299" y1="51.3549" x2="49.9958" y2="82.4937" gradientUnits="userSpaceOnUse">
<stop stop-color="#FF8F3E"/>
<stop offset="1" stop-color="#FF8125"/>
</linearGradient>
</defs>
</svg>
