<svg width="32" height="33" viewBox="0 0 32 33" fill="none" xmlns="http://www.w3.org/2000/svg">
<rect width="31.9967" height="32.46" rx="15.9983" fill="white"/>
<path d="M25.0871 11.21C24.2371 10.27 22.8171 9.8 20.7571 9.8H20.5171V9.76C20.5171 8.08 20.5171 6 16.7571 6H15.2371C11.4771 6 11.4771 8.09 11.4771 9.76V9.81H11.2371C9.16711 9.81 7.75711 10.28 6.90711 11.22C5.91711 12.32 5.94711 13.8 6.04711 14.81L6.05711 14.88L6.13456 15.6933C6.14883 15.8431 6.22949 15.9783 6.35538 16.0607C6.59519 16.2177 6.99653 16.4763 7.23711 16.61C7.37711 16.7 7.52711 16.78 7.67711 16.86C9.38711 17.8 11.2671 18.43 13.1771 18.74C13.2671 19.68 13.6771 20.78 15.8671 20.78C18.0571 20.78 18.4871 19.69 18.5571 18.72C20.5971 18.39 22.5671 17.68 24.3471 16.64C24.4071 16.61 24.4471 16.58 24.4971 16.55C24.8938 16.3258 25.3054 16.0495 25.6806 15.7788C25.7936 15.6973 25.8659 15.5713 25.8812 15.4327L25.8971 15.29L25.9471 14.82C25.9571 14.76 25.9571 14.71 25.9671 14.64C26.0471 13.63 26.0271 12.25 25.0871 11.21ZM17.0871 18.06C17.0871 19.12 17.0871 19.28 15.8571 19.28C14.6271 19.28 14.6271 19.09 14.6271 18.07V16.81H17.0871V18.06ZM12.9071 9.8V9.76C12.9071 8.06 12.9071 7.43 15.2371 7.43H16.7571C19.0871 7.43 19.0871 8.07 19.0871 9.76V9.81H12.9071V9.8Z" fill="url(#paint0_linear_34_2)"/>
<g filter="url(#filter0_i_34_2)">
<path d="M24.8706 17.9642C25.2242 17.7959 25.6315 18.0762 25.5961 18.4662L25.2372 22.42C25.0272 24.42 24.2072 26.46 19.8072 26.46H12.1872C7.78716 26.46 6.96716 24.42 6.75716 22.43L6.41645 18.6822C6.3814 18.2967 6.77936 18.0168 7.132 18.1763C8.27141 18.6918 10.3746 19.6064 11.6737 19.9467C11.838 19.9897 11.9709 20.1073 12.0429 20.2612C12.6498 21.5593 13.9663 22.25 15.8672 22.25C17.7493 22.25 19.0823 21.5327 19.6913 20.2314C19.7633 20.0774 19.8964 19.9598 20.0608 19.9166C21.4403 19.5536 23.6789 18.5313 24.8706 17.9642Z" fill="url(#paint1_linear_34_2)"/>
</g>
<defs>
<filter id="filter0_i_34_2" x="6.41428" y="17.9143" width="19.184" height="11.5457" filterUnits="userSpaceOnUse" color-interpolation-filters="sRGB">
<feFlood flood-opacity="0" result="BackgroundImageFix"/>
<feBlend mode="normal" in="SourceGraphic" in2="BackgroundImageFix" result="shape"/>
<feColorMatrix in="SourceAlpha" type="matrix" values="0 0 0 0 0 0 0 0 0 0 0 0 0 0 0 0 0 0 127 0" result="hardAlpha"/>
<feOffset dy="3"/>
<feGaussianBlur stdDeviation="2"/>
<feComposite in2="hardAlpha" operator="arithmetic" k2="-1" k3="1"/>
<feColorMatrix type="matrix" values="0 0 0 0 1 0 0 0 0 1 0 0 0 0 1 0 0 0 0.45 0"/>
<feBlend mode="normal" in2="shape" result="effect1_innerShadow_34_2"/>
</filter>
<linearGradient id="paint0_linear_34_2" x1="15.9983" y1="6" x2="16.4971" y2="25.73" gradientUnits="userSpaceOnUse">
<stop stop-color="#FF9900"/>
<stop offset="0.813535" stop-color="#FFDF6C"/>
</linearGradient>
<linearGradient id="paint1_linear_34_2" x1="16.0072" y1="17.5731" x2="15.9971" y2="26.73" gradientUnits="userSpaceOnUse">
<stop stop-color="#C126D2"/>
<stop offset="1" stop-color="#DA267A"/>
</linearGradient>
</defs>
</svg>
