<svg width="20" height="22" viewBox="0 0 20 22" fill="none" xmlns="http://www.w3.org/2000/svg">
<path d="M19.09 5.98002C18.24 5.04002 16.82 4.57002 14.76 4.57002H14.52V4.53002C14.52 2.85002 14.52 0.77002 10.76 0.77002H9.23998C5.47998 0.77002 5.47998 2.86002 5.47998 4.53002V4.58002H5.23998C3.16998 4.58002 1.75998 5.05002 0.909976 5.99002C-0.0800235 7.09002 -0.0500237 8.57002 0.0499763 9.58002L0.0599763 9.65002L0.137432 10.4633C0.151696 10.6131 0.23236 10.7484 0.358252 10.8307C0.598056 10.9877 0.999401 11.2464 1.23998 11.38C1.37998 11.47 1.52998 11.55 1.67998 11.63C3.38998 12.57 5.26998 13.2 7.17998 13.51C7.26998 14.45 7.67998 15.55 9.86998 15.55C12.06 15.55 12.49 14.46 12.56 13.49C14.6 13.16 16.57 12.45 18.35 11.41C18.41 11.38 18.45 11.35 18.5 11.32C18.8967 11.0958 19.3083 10.8195 19.6834 10.5489C19.7965 10.4673 19.8687 10.3413 19.8841 10.2028L19.9 10.06L19.95 9.59002C19.96 9.53002 19.96 9.48002 19.97 9.41002C20.05 8.40002 20.03 7.02002 19.09 5.98002ZM11.09 12.83C11.09 13.89 11.09 14.05 9.85998 14.05C8.62998 14.05 8.62998 13.86 8.62998 12.84V11.58H11.09V12.83ZM6.90998 4.57002V4.53002C6.90998 2.83002 6.90998 2.20002 9.23998 2.20002H10.76C13.09 2.20002 13.09 2.84002 13.09 4.53002V4.58002H6.90998V4.57002Z" fill="url(#paint0_linear_20_3)"/>
<g filter="url(#filter0_i_20_3)">
<path d="M18.8735 12.7342C19.2271 12.5659 19.6344 12.8462 19.599 13.2362L19.24 17.19C19.03 19.19 18.21 21.23 13.81 21.23H6.19003C1.79003 21.23 0.970027 19.19 0.760027 17.2L0.419315 13.4522C0.384273 13.0667 0.782229 12.7868 1.13487 12.9463C2.27428 13.4618 4.37742 14.3764 5.6766 14.7167C5.8409 14.7597 5.9738 14.8773 6.04574 15.0312C6.65271 16.3293 7.96914 17.02 9.87003 17.02C11.7521 17.02 13.0852 16.3027 13.6942 15.0014C13.7662 14.8474 13.8992 14.7299 14.0636 14.6866C15.4432 14.3236 17.6818 13.3013 18.8735 12.7342Z" fill="url(#paint1_linear_20_3)"/>
</g>
<defs>
<filter id="filter0_i_20_3" x="0.41716" y="12.6843" width="19.1839" height="11.5457" filterUnits="userSpaceOnUse" color-interpolation-filters="sRGB">
<feFlood flood-opacity="0" result="BackgroundImageFix"/>
<feBlend mode="normal" in="SourceGraphic" in2="BackgroundImageFix" result="shape"/>
<feColorMatrix in="SourceAlpha" type="matrix" values="0 0 0 0 0 0 0 0 0 0 0 0 0 0 0 0 0 0 127 0" result="hardAlpha"/>
<feOffset dy="3"/>
<feGaussianBlur stdDeviation="2"/>
<feComposite in2="hardAlpha" operator="arithmetic" k2="-1" k3="1"/>
<feColorMatrix type="matrix" values="0 0 0 0 1 0 0 0 0 1 0 0 0 0 1 0 0 0 0.45 0"/>
<feBlend mode="normal" in2="shape" result="effect1_innerShadow_20_3"/>
</filter>
<linearGradient id="paint0_linear_20_3" x1="10.0012" y1="0.77002" x2="10.5" y2="20.5" gradientUnits="userSpaceOnUse">
<stop stop-color="#FF9900"/>
<stop offset="0.813535" stop-color="#FFDF6C"/>
</linearGradient>
<linearGradient id="paint1_linear_20_3" x1="10.01" y1="12.3431" x2="10" y2="21.5" gradientUnits="userSpaceOnUse">
<stop stop-color="#C126D2"/>
<stop offset="1" stop-color="#DA267A"/>
</linearGradient>
</defs>
</svg>
