<svg width="32" height="33" viewBox="0 0 32 33" fill="none" xmlns="http://www.w3.org/2000/svg">
<path d="M30.5444 8.46665C29.1842 6.9624 26.9118 6.21028 23.6153 6.21028H23.2312V6.14627C23.2312 3.45782 23.2312 0.129272 17.2142 0.129272H14.7818C8.76482 0.129272 8.76482 3.47383 8.76482 6.14627V6.22628H8.38076C5.06821 6.22628 2.81184 6.9784 1.45161 8.48265C-0.132649 10.2429 -0.0846417 12.6113 0.0753848 14.2276L0.0913874 14.3396L0.215337 15.6411C0.238163 15.8808 0.367246 16.0973 0.568707 16.2291C0.952458 16.4802 1.59471 16.8942 1.9797 17.1081C2.20374 17.2521 2.44378 17.3801 2.68382 17.5081C5.42027 19.0124 8.42877 20.0206 11.4853 20.5166C11.6293 22.0209 12.2854 23.7812 15.79 23.7812C19.2946 23.7812 19.9827 22.0369 20.0947 20.4846C23.3592 19.9565 26.5118 18.8204 29.3602 17.1561C29.4562 17.1081 29.5203 17.0601 29.6003 17.0121C30.2351 16.6532 30.8938 16.2111 31.4941 15.778C31.675 15.6475 31.7906 15.4458 31.8153 15.2242L31.8406 14.9957L31.9207 14.2436C31.9367 14.1476 31.9367 14.0676 31.9527 13.9556C32.0807 12.3393 32.0487 10.1309 30.5444 8.46665ZM17.7423 19.4285C17.7423 21.1247 17.7423 21.3808 15.774 21.3808C13.8057 21.3808 13.8057 21.0767 13.8057 19.4445V17.4281H17.7423V19.4285ZM11.0532 6.21028V6.14627C11.0532 3.42582 11.0532 2.41765 14.7818 2.41765H17.2142C20.9428 2.41765 20.9428 3.44182 20.9428 6.14627V6.22628H11.0532V6.21028Z" fill="url(#paint0_linear_87_96)"/>
<g filter="url(#filter0_i_87_96)">
<path d="M30.198 19.2751C30.7639 19.0059 31.4156 19.4544 31.3589 20.0785L30.7846 26.4056C30.4485 29.6062 29.1363 32.8707 22.0951 32.8707H9.9011C2.85993 32.8707 1.54772 29.6062 1.21166 26.4216L0.666433 20.4241C0.610357 19.8073 1.24719 19.3593 1.8115 19.6146C3.63487 20.4395 7.00045 21.9031 9.07947 22.4476C9.34241 22.5165 9.55507 22.7047 9.6702 22.9509C10.6415 25.0283 12.7481 26.1336 15.7901 26.1336C18.8019 26.1336 20.9352 24.9857 21.9097 22.9033C22.025 22.6569 22.2379 22.4687 22.501 22.3995C24.7086 21.8186 28.291 20.1826 30.198 19.2751Z" fill="url(#paint1_linear_87_96)"/>
</g>
<defs>
<filter id="filter0_i_87_96" x="0.663086" y="19.1954" width="30.6992" height="18.4761" filterUnits="userSpaceOnUse" color-interpolation-filters="sRGB">
<feFlood flood-opacity="0" result="BackgroundImageFix"/>
<feBlend mode="normal" in="SourceGraphic" in2="BackgroundImageFix" result="shape"/>
<feColorMatrix in="SourceAlpha" type="matrix" values="0 0 0 0 0 0 0 0 0 0 0 0 0 0 0 0 0 0 127 0" result="hardAlpha"/>
<feOffset dy="4.80079"/>
<feGaussianBlur stdDeviation="3.20053"/>
<feComposite in2="hardAlpha" operator="arithmetic" k2="-1" k3="1"/>
<feColorMatrix type="matrix" values="0 0 0 0 1 0 0 0 0 1 0 0 0 0 1 0 0 0 0.45 0"/>
<feBlend mode="normal" in2="shape" result="effect1_innerShadow_87_96"/>
</filter>
<linearGradient id="paint0_linear_87_96" x1="16" y1="0.129272" x2="16.7982" y2="31.7025" gradientUnits="userSpaceOnUse">
<stop stop-color="#FF8125"/>
<stop offset="0.813535" stop-color="#FFDF6C"/>
</linearGradient>
<linearGradient id="paint1_linear_87_96" x1="16.0141" y1="18.6492" x2="15.9981" y2="33.3028" gradientUnits="userSpaceOnUse">
<stop stop-color="#FF8F3E"/>
<stop offset="1" stop-color="#FF8125"/>
</linearGradient>
</defs>
</svg>
